<svg viewBox="0 0 1024 1024" xmlns="http://www.w3.org/2000/svg">
  <path fill="#6e7df7" d="M729.634133 791.893333H582.314667A78.301867 78.301867 0 0 0 546.133333 755.746133v-50.722133c145.988267-16.9984 259.754667-141.243733 259.754667-291.703467 0-162.030933-131.822933-293.888-293.888-293.888-162.065067 0-293.888 131.857067-293.888 293.888 0 150.459733 113.7664 274.705067 259.754667 291.703467v50.688a78.301867 78.301867 0 0 0-36.1472 36.113067H294.365867a34.133333 34.133333 0 1 0 0 68.266666h147.285333c12.6976 26.2144 39.253333 44.373333 70.3488 44.373334s57.685333-18.158933 70.382933-44.373334h147.2512a34.133333 34.133333 0 1 0 0-68.266666zM447.829333 447.488h128.4096c-6.5536 124.177067-46.728533 191.453867-64.170666 191.453867s-57.685333-67.2768-64.238934-191.488zM512 187.733333c17.476267 0 57.6512 67.310933 64.2048 191.488H447.829333C454.382933 255.044267 494.557867 187.733333 512 187.733333z m99.669333 427.690667c19.080533-46.660267 30.173867-106.427733 33.211734-167.936h89.873066a225.860267 225.860267 0 0 1-123.0848 167.936z m123.0848-236.202667h-89.873066c-3.037867-61.5424-14.1312-121.309867-33.211734-167.936a225.860267 225.860267 0 0 1 123.0848 167.936zM412.330667 211.285333c-19.080533 46.626133-30.173867 106.3936-33.211734 167.936H289.245867a225.860267 225.860267 0 0 1 123.0848-167.936z m-123.0848 236.202667h89.873066c3.037867 61.508267 14.1312 121.275733 33.211734 167.936a225.860267 225.860267 0 0 1-123.0848-167.936z"/>
</svg>
